<svg xmlns="http://www.w3.org/2000/svg" style="background-color:#fff;enable-background:new 0 0 508.044 508.044;" xmlns:xlink="http://www.w3.org/1999/xlink" width="100" height="35" viewBox="0 0 100 35">
  <defs>
    <clipPath id="clip-path">
      <rect id="Rect치ngulo_245" data-name="Rect치ngulo 245" width="100" height="35" transform="translate(11920 3133)" fill="rgba(255,255,255,0.7)"/>
    </clipPath>
  </defs>
  <g id="Enmascarar_grupo_16" data-name="Enmascarar grupo 16" transform="translate(-11920 -3133)" clip-path="url(#clip-path)">
    <g id="Grupo_35215" data-name="Grupo 35215" transform="translate(11920 3133)">
      <path id="Trazado_112" data-name="Trazado 112" d="M4.3,23.675v2.433c0,2.434,3.135,3.884,6.6,3.884,3.79,0,6.551-1.778,6.551-5.053,0-3.836-3.884-5.1-7.954-6.691C5.147,16.611.7,14.738.7,8.89.7,2.667,5.708,0,11.276,0c4.959,0,10.013,1.872,10.013,5.474V9.358H16.938V7.065c0-1.919-2.948-2.948-5.662-2.948-3.229,0-5.8,1.5-5.8,4.538,0,3.51,3.322,4.68,7.018,6.083,4.866,1.825,9.685,3.7,9.685,9.826,0,6.317-5.147,9.592-11.276,9.592C5.755,34.156,0,31.863,0,27.138V23.675Z" transform="translate(0 0)" fill="#0d1319"/>
      <path id="Trazado_113" data-name="Trazado 113" d="M247.2,69.585h1.5V68.7c0-3.743-2.152-5.053-5.054-5.053a12.6,12.6,0,0,0-6.785,2.292l-1.824-3.228a15.208,15.208,0,0,1,8.983-2.807c6.036,0,9.218,3.134,9.218,9.123V79.6a.916.916,0,0,0,1.03,1.029h2.519v3.509h-4.859c-2.105,0-2.948-1.03-2.948-2.574v-.327a5.757,5.757,0,0,1,.187-1.545h-.094a8.6,8.6,0,0,1-7.813,5.007c-3.93,0-7.862-2.293-7.862-7.158,0-7.44,9.873-7.954,13.8-7.954m-4.96,11.6c4.024,0,6.5-4.117,6.5-7.673v-.982h-1.169c-2.152,0-9.592.093-9.592,4.632a4,4,0,0,0,4.258,4.024" transform="translate(-196.934 -50.542)" fill="#0d1319"/>
      <path id="Trazado_114" data-name="Trazado 114" d="M382.236,82.141h3.889V66.513a.916.916,0,0,0-1.03-1.029h-2.947v-3.51h5.334c2.059,0,3.041.842,3.041,2.76v1.5a13.941,13.941,0,0,1-.092,1.638h.092c1.077-3.463,3.837-6.177,7.487-6.177a8,8,0,0,1,1.17.094V66.28a5.985,5.985,0,0,0-1.311-.14c-5.053,0-7.2,5.1-7.2,9.732v6.271h3.509V85.65H382.236Z" transform="translate(-322.447 -52.056)" fill="#0d1319"/>
      <path id="Trazado_115" data-name="Trazado 115" d="M506.593,21.861h4.551v6.5h5.661v3.51h-5.661V42.963c0,4.82,3.276,5.429,5.053,5.429a10.583,10.583,0,0,0,1.076-.048v3.791a12.837,12.837,0,0,1-1.638.093c-2.994,0-9.03-.936-9.03-8.843V31.874h-.013V21.861Z" transform="translate(-427.45 -18.446)" fill="#0d1319"/>
      <path id="Trazado_116" data-name="Trazado 116" d="M156.746,20.661H161.3v6.5h5.662v3.51H161.3V41.763c0,4.82,3.276,5.427,5.054,5.427.655,0,1.076-.046,1.076-.046v3.791a12.934,12.934,0,0,1-1.638.092c-2.995,0-9.03-.936-9.03-8.843V30.674h-.012V20.661Z" transform="translate(-132.258 -17.433)" fill="#0d1319"/>
      <path id="Trazado_117" data-name="Trazado 117" d="M602.709,175.2a3.634,3.634,0,1,1-3.634-3.634,3.634,3.634,0,0,1,3.634,3.634" transform="translate(-502.419 -144.766)" fill="#ef172f"/>
      <rect id="Rect치ngulo_97" data-name="Rect치ngulo 97" width="100.291" height="46.176" transform="translate(0 0)" fill="none"/>
    </g>
  </g>
</svg>
